# xmcd
#
# Track frame offsets:
# 150
# 15020
# 29610
# 44867
# 57357
# 74465
# 87835
# 104662
# 118292
# 131732
# 145050
# 162880
# 178360
# 195090
#
# Disc length: 2814 seconds
#
#
# Revision: 0
# Processed by: cddbd v1.5.2PL0 Copyright (c) Steve Scherf et al.
# Submitted via: FreeRIP 2.96 
#
DISCID=cb0afc0e
DTITLE=Carlos Colman - Sertanejo de Coração
DYEAR=1900
DGENRE=Alternative
TTITLE0=Chamamé Delicado
TTITLE1=Atravessando a Fronteira(Com Gilson Espíndola)
TTITLE2=Terra Minha(Com Ogg Ibrahim)
TTITLE3=Fulano de Tal(Com Waldney Gomes)
TTITLE4=Beira D'Água(Com João Fígar)
TTITLE5=Coração Ventania(Com Rodrigo Teixeira)
TTITLE6=Viola Temperada(Com Celito Espíndola)
TTITLE7=Rodada(Com Américo and Nando)
TTITLE8=Baileiro(Com Zezinho do Forró)
TTITLE9=Flor Em Flor
TTITLE10=Pai Nosso Sertanejo(Com Juci Ibanez)
TTITLE11=Com o Pé na Estrada(Com Zédu)
TTITLE12=Pedacinho de Chão(Com Mírian Camacho)
TTITLE13=Olhar Caipira
EXTD=
EXTT0=
EXTT1=
EXTT2=
EXTT3=
EXTT4=
EXTT5=
EXTT6=
EXTT7=
EXTT8=
EXTT9=
EXTT10=
EXTT11=
EXTT12=
EXTT13=
PLAYORDER=
